<?xml version="1.0" standalone="no"?>
<!DOCTYPE svg PUBLIC "-//W3C//DTD SVG 20010904//EN"
 "http://www.w3.org/TR/2001/REC-SVG-20010904/DTD/svg10.dtd">
<svg version="1.0" xmlns="http://www.w3.org/2000/svg"
 width="1280.000000pt" height="1280.000000pt" viewBox="0 0 1280.000000 1280.000000"
 preserveAspectRatio="xMidYMid meet">
<metadata>
Created by potrace 1.15, written by Peter Selinger 2001-2017
</metadata>
<g transform="translate(0.000000,1280.000000) scale(0.100000,-0.100000)"
fill="#00ed82" stroke="none">
<path d="M7087 12588 c-18 -341 -102 -671 -241 -948 -150 -300 -325 -526 -725
-935 -1238 -1267 -2015 -2455 -2171 -3319 -61 -334 -41 -844 50 -1280 189
-906 694 -1653 1562 -2307 156 -117 450 -319 465 -319 5 0 24 46 43 103 40
119 162 370 245 507 280 460 589 817 1195 1378 589 545 718 676 903 917 347
451 484 795 551 1376 72 619 16 1170 -189 1866 -288 975 -868 2118 -1429 2813
-80 99 -235 270 -245 270 -4 0 -11 -55 -14 -122z"/>
<path d="M9514 9483 c9 -33 55 -306 75 -453 41 -299 55 -502 55 -850 1 -680
-53 -942 -274 -1326 -296 -514 -889 -1206 -1486 -1736 -314 -279 -632 -675
-766 -955 -43 -89 -50 -115 -63 -215 -8 -62 -19 -137 -25 -167 -21 -112 -8
-271 24 -271 6 0 47 14 91 31 237 91 550 163 1145 264 588 100 770 140 985
215 516 182 1119 663 1359 1085 50 86 141 351 186 535 110 454 115 978 14
1510 -153 814 -547 1612 -1044 2111 -98 99 -260 239 -276 239 -3 0 -3 -8 0
-17z"/>
<path d="M3355 8044 c-209 -143 -362 -270 -541 -448 -261 -261 -424 -484 -569
-781 -301 -614 -309 -1151 -26 -1730 260 -530 720 -949 1328 -1209 427 -183
889 -282 1487 -320 95 -6 96 -7 -69 94 -910 558 -1412 1102 -1607 1740 -31
100 -85 464 -113 757 -55 573 49 1429 234 1916 16 42 26 77 22 77 -3 -1 -69
-44 -146 -96z"/>
<path d="M9665 3254 c-346 -57 -781 -124 -965 -149 -677 -92 -1035 -163 -1440
-284 -192 -58 -422 -143 -413 -152 11 -10 304 -98 529 -159 507 -136 1295
-295 1634 -331 l105 -11 850 186 c468 102 857 190 865 195 22 12 59 123 66
199 8 79 -12 168 -54 246 -38 72 -154 182 -249 238 -74 44 -269 129 -289 127
-5 -1 -292 -48 -639 -105z"/>
<path d="M2444 3061 c-253 -215 -356 -426 -340 -691 8 -123 36 -261 56 -271 8
-4 143 -19 299 -34 722 -67 1414 -168 1807 -265 225 -55 389 -110 837 -276
608 -226 860 -295 1297 -353 124 -17 331 -44 460 -61 129 -17 496 -69 815
-115 319 -46 661 -93 760 -105 225 -26 283 -40 591 -140 268 -88 517 -155 616
-166 61 -7 61 -7 54 17 -99 352 -99 525 1 729 27 56 57 95 117 155 87 86 165
137 290 188 57 23 81 38 88 56 5 13 5 27 1 31 -4 4 -82 12 -173 19 -527 37
-1425 197 -2565 456 -355 81 -452 107 -909 245 -382 115 -537 157 -728 195
-197 41 -733 116 -2258 320 -476 63 -889 120 -919 125 -101 18 -109 16 -197
-59z"/>
<path d="M2963 1597 c-211 -61 -383 -114 -383 -117 1 -3 43 -29 94 -59 235
-135 389 -323 432 -531 31 -145 10 -387 -50 -585 -8 -27 -13 -51 -11 -53 2 -3
515 200 1140 450 l1136 455 -403 150 c-712 266 -970 342 -1321 388 -207 27
-208 27 -634 -98z"/>
<path d="M10520 1614 c-239 -46 -452 -232 -531 -464 -27 -81 -36 -229 -19
-327 16 -98 66 -197 124 -251 91 -84 205 -117 366 -109 227 11 429 137 525
329 46 93 59 162 52 288 -13 239 -110 426 -262 501 -53 26 -78 32 -147 34 -46
2 -94 1 -108 -1z"/>
<path d="M2165 1289 c-90 -8 -187 -38 -254 -77 -113 -66 -205 -202 -236 -349
-19 -89 -19 -270 0 -352 35 -146 130 -268 258 -330 89 -44 166 -61 297 -68
330 -16 535 115 607 387 23 89 24 311 0 397 -35 133 -109 240 -208 304 -63 40
-178 77 -266 84 -37 3 -79 7 -93 9 -14 1 -61 -1 -105 -5z"/>
</g>
</svg>
